<?xml version="1.0" encoding="iso-8859-1"?>
<!-- Uploaded to: SVG Repo, www.svgrepo.com, Generator: SVG Repo Mixer Tools -->
<svg height="800px" width="800px" version="1.1" id="Layer_1" xmlns="http://www.w3.org/2000/svg" xmlns:xlink="http://www.w3.org/1999/xlink" 
	 viewBox="0 0 512.077 512.077" xml:space="preserve">
<g transform="translate(1 1)">
	<g>
		<path style="fill:#FD9808;" d="M63.93,410.345c-34.133,25.6-25.6,28.16,0,62.293C94.65,447.892,86.97,445.332,63.93,410.345"/>
		<path style="fill:#FD9808;" d="M166.33,410.345c-34.133,25.6-25.6,28.16,0,62.293C197.05,447.038,189.37,444.479,166.33,410.345"
			/>
		<path style="fill:#FD9808;" d="M267.024,410.345c-30.72,29.867-23.04,31.573,0,62.293
			C300.304,447.038,292.624,444.479,267.024,410.345"/>
	</g>
	<g>
		<path style="fill:#FFDD09;" d="M101.477,156.905c0,14.507-11.093,25.6-25.6,25.6s-25.6-11.093-25.6-25.6s11.093-25.6,25.6-25.6
			S101.477,142.398,101.477,156.905"/>
		<path style="fill:#FFDD09;" d="M280.677,199.572c0,14.507-11.093,25.6-25.6,25.6c-14.507,0-25.6-11.093-25.6-25.6
			c0-14.507,11.093-25.6,25.6-25.6C269.584,173.972,280.677,185.065,280.677,199.572"/>
		<path style="fill:#FFDD09;" d="M502.544,284.905c0-9.387-7.68-17.067-17.067-17.067h-153.6h-25.6H7.61l28.16,84.48
			c3.413,11.093,13.653,17.92,24.747,17.92h237.227l23.04-68.267h164.693C494.864,301.972,502.544,294.292,502.544,284.905"/>
	</g>
	<path style="fill:#54C9FD;" d="M229.477,319.038c0,14.507-26.453,25.6-59.733,25.6s-59.733-11.093-59.733-25.6
		c0-14.507,26.453-25.6,59.733-25.6S229.477,304.532,229.477,319.038"/>
	<path d="M63.93,481.172h-0.853c-2.56,0-4.267-1.707-5.973-3.413c-2.56-3.413-5.12-6.827-6.827-9.387
		c-11.093-14.507-17.92-23.04-17.067-34.133c1.707-10.24,10.24-18.773,25.6-30.72c1.707-1.707,4.267-1.707,6.827-1.707
		c2.56,0,4.267,1.707,5.973,3.413c2.56,4.267,4.267,7.68,6.827,11.093c18.773,28.16,23.04,37.547-8.533,63.147
		C68.197,480.319,65.637,481.172,63.93,481.172z M62.224,423.145c-5.973,5.12-11.093,10.24-11.947,13.653
		c-0.853,4.267,5.12,11.093,13.653,21.333c0.853,0.853,1.707,1.707,1.707,2.56c14.507-11.947,12.8-14.507-1.707-34.987
		C63.077,424.852,63.077,423.998,62.224,423.145z"/>
	<path d="M166.33,481.172h-0.853c-2.56,0-4.267-1.707-5.973-3.413c-2.56-3.413-5.12-6.827-6.827-9.387
		c-11.093-14.507-17.92-23.04-17.067-34.133c1.707-10.24,10.24-18.773,25.6-30.72c1.707-1.707,4.267-1.707,6.827-1.707
		c2.56,0,4.267,1.707,5.973,3.413c2.56,3.413,4.267,6.827,6.827,9.387c19.627,27.307,23.893,37.547-8.533,64
		C170.597,480.319,168.89,481.172,166.33,481.172z M164.624,422.292c-5.973,5.12-11.947,10.24-11.947,13.653
		c-0.853,4.267,5.12,11.093,13.653,21.333c0.853,0.853,0.853,1.707,1.707,2.56c14.507-12.8,12.8-15.36-1.707-34.987
		C165.477,423.998,165.477,423.145,164.624,422.292z"/>
	<path d="M267.024,481.172h-0.853c-2.56,0-4.267-1.707-5.973-3.413c-2.56-3.413-4.267-5.973-6.827-8.533
		c-20.48-27.307-23.04-35.84,7.68-64.853c1.707-1.707,4.267-2.56,6.827-2.56s4.267,1.707,5.973,3.413
		c2.56,3.413,5.12,6.827,6.827,9.387c11.093,14.507,17.92,23.04,17.067,34.133c-1.707,10.24-10.24,18.773-25.6,30.72
		C270.437,480.319,268.73,481.172,267.024,481.172z M266.17,423.145c-15.36,14.507-13.653,17.067,0.853,35.84
		c0.853,0.853,0.853,0.853,1.707,1.707c5.973-5.12,11.947-10.24,11.947-13.653c0.853-4.267-5.12-11.093-13.653-21.333
		C267.024,424.852,266.17,423.998,266.17,423.145z"/>
	<path d="M306.277,481.172h-281.6c-5.12,0-8.533-3.413-8.533-8.533c0-5.12,3.413-8.533,8.533-8.533h281.6
		c5.12,0,8.533,3.413,8.533,8.533C314.81,477.758,311.397,481.172,306.277,481.172z"/>
	<path d="M297.744,378.772H60.517c-14.507,0-27.307-9.387-32.427-23.04l-28.16-85.333c-1.707-2.56-0.853-5.12,0.853-7.68
		c1.707-2.56,4.267-3.413,6.827-3.413h477.867c14.507,0,25.6,11.093,25.6,25.6s-11.093,25.6-25.6,25.6h-158.72l-20.48,62.293
		C304.57,376.212,301.157,378.772,297.744,378.772z M19.557,276.372l24.747,73.387c2.56,6.827,8.533,11.947,16.213,11.947H291.77
		l20.48-62.293c0.853-3.413,4.267-5.973,7.68-5.973h165.547c5.12,0,8.533-3.413,8.533-8.533s-3.413-8.533-8.533-8.533H19.557z"/>
	<path d="M75.877,191.038c-18.773,0-34.133-15.36-34.133-34.133s15.36-34.133,34.133-34.133s34.133,15.36,34.133,34.133
		S94.65,191.038,75.877,191.038z M75.877,139.838c-9.387,0-17.067,7.68-17.067,17.067s7.68,17.067,17.067,17.067
		s17.067-7.68,17.067-17.067S85.264,139.838,75.877,139.838z"/>
	<path d="M255.077,233.705c-18.773,0-34.133-15.36-34.133-34.133s15.36-34.133,34.133-34.133s34.133,15.36,34.133,34.133
		S273.85,233.705,255.077,233.705z M255.077,182.505c-9.387,0-17.067,7.68-17.067,17.067c0,9.387,7.68,17.067,17.067,17.067
		c9.387,0,17.067-7.68,17.067-17.067C272.144,190.185,264.464,182.505,255.077,182.505z"/>
	<path d="M169.744,97.172L169.744,97.172c-7.68,0-14.507-2.56-19.627-6.827c-3.413-2.56-4.267-7.68-1.707-11.947
		c2.56-3.413,7.68-4.267,11.947-1.707c2.56,2.56,5.973,3.413,9.387,3.413c5.12,0,8.533,3.413,8.533,8.533
		C178.277,93.758,174.864,97.172,169.744,97.172z M190.224,86.932c-1.707,0-3.413-0.853-5.12-1.707
		c-3.413-2.56-4.267-7.68-1.707-11.947c2.56-3.413,3.413-6.827,3.413-10.24c0-5.12,3.413-8.533,8.533-8.533
		c5.12,0,8.533,3.413,8.533,8.533l0,0c0,7.68-2.56,14.507-6.827,19.627C195.344,85.225,192.784,86.932,190.224,86.932z
		 M144.144,71.572c-5.12,0-8.533-3.413-8.533-8.533l0,0c0-6.827,2.56-13.653,5.973-19.627c2.56-3.413,7.68-5.12,11.947-1.707
		c3.413,2.56,5.12,7.68,1.707,11.947c-1.707,2.56-2.56,5.973-2.56,9.387C152.677,68.158,149.264,71.572,144.144,71.572z
		 M184.25,51.092c-1.707,0-3.413-0.853-5.12-1.707c-2.56-2.56-5.973-3.413-9.387-3.413c-5.12,0-8.533-3.413-8.533-8.533
		s3.413-8.533,8.533-8.533l0,0c6.827,0,13.653,2.56,19.627,5.973c3.413,2.56,5.12,7.68,1.707,11.947
		C190.224,49.385,186.81,51.092,184.25,51.092z"/>
	<path d="M169.744,353.172c-34.133,0-68.267-11.947-68.267-34.133c0-22.187,34.133-34.133,68.267-34.133
		s68.267,11.947,68.267,34.133S203.877,353.172,169.744,353.172z M169.744,301.972c-31.573,0-51.2,11.093-51.2,17.067
		c0,5.973,19.627,17.067,51.2,17.067s51.2-11.093,51.2-17.067C220.944,313.065,201.317,301.972,169.744,301.972z"/>
	<path d="M178.277,327.572H161.21c-5.12,0-8.533-3.413-8.533-8.533s3.413-8.533,8.533-8.533h17.067c5.12,0,8.533,3.413,8.533,8.533
		S183.397,327.572,178.277,327.572z"/>
</g>
</svg>